<?xml version="1.0" encoding="utf-8"?>
<!-- Generator: Adobe Illustrator 15.1.0, SVG Export Plug-In . SVG Version: 6.00 Build 0)  -->
<!DOCTYPE svg PUBLIC "-//W3C//DTD SVG 1.1//EN" "http://www.w3.org/Graphics/SVG/1.1/DTD/svg11.dtd">
<svg version="1.1" id="Layer_1" xmlns="http://www.w3.org/2000/svg" xmlns:xlink="http://www.w3.org/1999/xlink" x="0px" y="0px"
	 width="223.591px" height="412.584px" viewBox="0 0 223.591 412.584" enable-background="new 0 0 223.591 412.584"
	 xml:space="preserve">
<linearGradient id="SVGID_1_" gradientUnits="userSpaceOnUse" x1="145.5" y1="17.125" x2="177.75" y2="17.125">
	<stop  offset="0" style="stop-color:#6B6969"/>
	<stop  offset="0.0077" style="stop-color:#7E7878"/>
	<stop  offset="0.019" style="stop-color:#96908F"/>
	<stop  offset="0.0311" style="stop-color:#ADA7A7"/>
	<stop  offset="0.0441" style="stop-color:#C0BCBC"/>
	<stop  offset="0.0581" style="stop-color:#D0CDCD"/>
	<stop  offset="0.0737" style="stop-color:#DBDADA"/>
	<stop  offset="0.0923" style="stop-color:#E3E3E3"/>
	<stop  offset="0.1212" style="stop-color:#E6E7E8"/>
	<stop  offset="0.1622" style="stop-color:#C9CBCC"/>
	<stop  offset="0.2303" style="stop-color:#939598"/>
	<stop  offset="0.5394" style="stop-color:#939598"/>
	<stop  offset="0.9091" style="stop-color:#E6E7E8"/>
	<stop  offset="1" style="stop-color:#6D6E71"/>
</linearGradient>
<path fill="url(#SVGID_1_)" d="M177.75,20.25c0,1.65-1.35,3-3,3H148.5c-1.65,0-3-1.35-3-3V14c0-1.65,1.35-3,3-3h26.25
	c1.65,0,3,1.35,3,3V20.25z"/>
<linearGradient id="SVGID_2_" gradientUnits="userSpaceOnUse" x1="17" y1="48.25" x2="17" y2="67.2517">
	<stop  offset="0" style="stop-color:#6B6969"/>
	<stop  offset="0.0077" style="stop-color:#7E7878"/>
	<stop  offset="0.019" style="stop-color:#96908F"/>
	<stop  offset="0.0311" style="stop-color:#ADA7A7"/>
	<stop  offset="0.0441" style="stop-color:#C0BCBC"/>
	<stop  offset="0.0581" style="stop-color:#D0CDCD"/>
	<stop  offset="0.0737" style="stop-color:#DBDADA"/>
	<stop  offset="0.0923" style="stop-color:#E3E3E3"/>
	<stop  offset="0.1212" style="stop-color:#E6E7E8"/>
	<stop  offset="0.1622" style="stop-color:#C9CBCC"/>
	<stop  offset="0.2303" style="stop-color:#939598"/>
	<stop  offset="0.5394" style="stop-color:#939598"/>
	<stop  offset="0.9091" style="stop-color:#E6E7E8"/>
	<stop  offset="1" style="stop-color:#6D6E71"/>
</linearGradient>
<path fill="url(#SVGID_2_)" d="M22.25,63.5c0,1.65-1.35,3-3,3h-4.5c-1.65,0-3-1.35-3-3V51c0-1.65,1.35-3,3-3h4.5c1.65,0,3,1.35,3,3
	V63.5z"/>
<linearGradient id="SVGID_3_" gradientUnits="userSpaceOnUse" x1="15.375" y1="103.25" x2="15.375" y2="89.25">
	<stop  offset="0" style="stop-color:#6B6969"/>
	<stop  offset="0.0077" style="stop-color:#7E7878"/>
	<stop  offset="0.019" style="stop-color:#96908F"/>
	<stop  offset="0.0311" style="stop-color:#ADA7A7"/>
	<stop  offset="0.0441" style="stop-color:#C0BCBC"/>
	<stop  offset="0.0581" style="stop-color:#D0CDCD"/>
	<stop  offset="0.0737" style="stop-color:#DBDADA"/>
	<stop  offset="0.0923" style="stop-color:#E3E3E3"/>
	<stop  offset="0.1212" style="stop-color:#E6E7E8"/>
	<stop  offset="0.1622" style="stop-color:#C9CBCC"/>
	<stop  offset="0.2303" style="stop-color:#939598"/>
	<stop  offset="0.5394" style="stop-color:#939598"/>
	<stop  offset="0.9091" style="stop-color:#E6E7E8"/>
	<stop  offset="1" style="stop-color:#6D6E71"/>
</linearGradient>
<path fill="url(#SVGID_3_)" d="M19,99.917c0,1.65-1.35,3-3,3h-1.25c-1.65,0-3-1.35-3-3v-8c0-1.65,1.35-3,3-3H16c1.65,0,3,1.35,3,3
	V99.917z"/>
<linearGradient id="SVGID_4_" gradientUnits="userSpaceOnUse" x1="15.375" y1="137.75" x2="15.375" y2="123.75">
	<stop  offset="0" style="stop-color:#6B6969"/>
	<stop  offset="0.0077" style="stop-color:#7E7878"/>
	<stop  offset="0.019" style="stop-color:#96908F"/>
	<stop  offset="0.0311" style="stop-color:#ADA7A7"/>
	<stop  offset="0.0441" style="stop-color:#C0BCBC"/>
	<stop  offset="0.0581" style="stop-color:#D0CDCD"/>
	<stop  offset="0.0737" style="stop-color:#DBDADA"/>
	<stop  offset="0.0923" style="stop-color:#E3E3E3"/>
	<stop  offset="0.1212" style="stop-color:#E6E7E8"/>
	<stop  offset="0.1622" style="stop-color:#C9CBCC"/>
	<stop  offset="0.2303" style="stop-color:#939598"/>
	<stop  offset="0.5394" style="stop-color:#939598"/>
	<stop  offset="0.9091" style="stop-color:#E6E7E8"/>
	<stop  offset="1" style="stop-color:#6D6E71"/>
</linearGradient>
<path fill="url(#SVGID_4_)" d="M19,134.417c0,1.65-1.35,3-3,3h-1.25c-1.65,0-3-1.35-3-3v-8c0-1.65,1.35-3,3-3H16c1.65,0,3,1.35,3,3
	V134.417z"/>
<linearGradient id="SVGID_5_" gradientUnits="userSpaceOnUse" x1="113" y1="9" x2="113" y2="411.0203">
	<stop  offset="0" style="stop-color:#6B6969"/>
	<stop  offset="0.0077" style="stop-color:#7E7878"/>
	<stop  offset="0.019" style="stop-color:#96908F"/>
	<stop  offset="0.0311" style="stop-color:#ADA7A7"/>
	<stop  offset="0.0441" style="stop-color:#C0BCBC"/>
	<stop  offset="0.0581" style="stop-color:#D0CDCD"/>
	<stop  offset="0.0737" style="stop-color:#DBDADA"/>
	<stop  offset="0.0923" style="stop-color:#E3E3E3"/>
	<stop  offset="0.1212" style="stop-color:#E6E7E8"/>
	<stop  offset="0.1622" style="stop-color:#C9CBCC"/>
	<stop  offset="0.2303" style="stop-color:#939598"/>
	<stop  offset="0.5394" style="stop-color:#939598"/>
	<stop  offset="0.9091" style="stop-color:#E6E7E8"/>
	<stop  offset="1" style="stop-color:#6D6E71"/>
</linearGradient>
<path fill="url(#SVGID_5_)" d="M212,371.5c0,16.5-13.5,30-30,30H44c-16.5,0-30-13.5-30-30V43c0-16.5,13.5-30,30-30h138
	c16.5,0,30,13.5,30,30V371.5z"/>
<path d="M44,399.5c-15.439,0-28-12.561-28-28V43c0-15.439,12.561-28,28-28h138c15.439,0,28,12.561,28,28v328.5
	c0,15.439-12.561,28-28,28H44z"/>
<path fill="#C9C7C8" d="M44,399.5c-15.439,0-28-12.561-28-28V43c0-15.439,12.561-28,28-28h138c15.439,0,28,12.561,28,28v328.5
	c0,15.439-12.561,28-28,28H44z"/>
<path fill="#F4F4F4" d="M44,397.5c-14.336,0-26-11.663-26-26V43c0-14.336,11.664-26,26-26h138c14.336,0,26,11.664,26,26v328.5
	c0,14.337-11.664,26-26,26H44z"/>
<g>
	<linearGradient id="SVGID_6_" gradientUnits="userSpaceOnUse" x1="88.0781" y1="54.8506" x2="77.4049" y2="42.7469">
		<stop  offset="0" style="stop-color:#F1F2F2"/>
		<stop  offset="1" style="stop-color:#000000"/>
	</linearGradient>
	<circle fill="url(#SVGID_6_)" cx="82.313" cy="48.313" r="4.861"/>
	<radialGradient id="SVGID_7_" cx="81.9375" cy="48.0625" r="2.675" gradientUnits="userSpaceOnUse">
		<stop  offset="0" style="stop-color:#1C75BC"/>
		<stop  offset="1" style="stop-color:#262262"/>
	</radialGradient>
	<circle fill="url(#SVGID_7_)" cx="82.313" cy="48.313" r="2.675"/>
</g>
<rect x="29" y="80.5" stroke="#939598" stroke-miterlimit="10" width="168" height="252"/>
<path fill="#E9E9E9" d="M134.667,47.976c0,2.488-2.25,4.524-5,4.524h-27.666c-2.75,0-5-2.036-5-4.524s2.25-4.524,5-4.524h27.666
	C132.417,43.451,134.667,45.487,134.667,47.976z"/>
<path fill="#939598" d="M102.001,50.5c-1.626,0-3-1.156-3-2.524s1.374-2.524,3-2.524h27.666c1.626,0,3,1.156,3,2.524
	s-1.374,2.524-3,2.524H102.001z"/>
<path fill="#5A5A5A" d="M129,32.09c0,1.841-1.492,3.333-3.333,3.333H106c-1.841,0-3.333-1.492-3.333-3.333l0,0
	c0-1.841,1.492-3.333,3.333-3.333h19.667C127.508,28.757,129,30.249,129,32.09L129,32.09z"/>
<linearGradient id="SVGID_8_" gradientUnits="userSpaceOnUse" x1="156.25" y1="18.25" x2="156.25" y2="322.0008">
	<stop  offset="0" style="stop-color:#FFFFFF;stop-opacity:0.6"/>
	<stop  offset="0.5152" style="stop-color:#FFFFFF;stop-opacity:0.05"/>
	<stop  offset="1" style="stop-color:#FFFFFF;stop-opacity:0.01"/>
</linearGradient>
<path fill="url(#SVGID_8_)" d="M187.131,18.25H106l8.428,25.201h15.239c2.75,0,5,2.036,5,4.524s-2.25,4.524-5,4.524h-12.213
	L206.5,318.758V43C206.5,31.053,198.239,21.003,187.131,18.25z"/>
<g>
	<linearGradient id="SVGID_9_" gradientUnits="userSpaceOnUse" x1="115.708" y1="347.5" x2="115.708" y2="370">
		<stop  offset="0" style="stop-color:#FFFFFF"/>
		<stop  offset="1" style="stop-color:#DBDBDB"/>
	</linearGradient>
	<circle fill="url(#SVGID_9_)" stroke="#939598" stroke-miterlimit="10" cx="115.708" cy="366.625" r="18.562"/>
	<path fill="#939598" d="M119.001,373.011h-6c-1.93,0-3.5-1.57-3.5-3.5v-6c0-1.93,1.57-3.5,3.5-3.5h6c1.93,0,3.5,1.57,3.5,3.5v6
		C122.501,371.44,120.931,373.011,119.001,373.011z M113.001,361.011c-1.379,0-2.5,1.121-2.5,2.5v6c0,1.379,1.121,2.5,2.5,2.5h6
		c1.379,0,2.5-1.121,2.5-2.5v-6c0-1.379-1.121-2.5-2.5-2.5H113.001z"/>
	
		<radialGradient id="SVGID_10_" cx="88.6787" cy="376.2285" r="20.5229" gradientTransform="matrix(1.192488e-008 -1 1 1.192488e-008 -260.5565 472.6935)" gradientUnits="userSpaceOnUse">
		<stop  offset="0" style="stop-color:#FFFFFF"/>
		<stop  offset="1" style="stop-color:#FFFFFF;stop-opacity:0.5"/>
	</radialGradient>
	<path opacity="0.8" fill="url(#SVGID_10_)" d="M115.672,367.793c-6.391,0-12.594-0.157-18.525-0.45
		c0.381,9.916,8.517,17.844,18.525,17.844s18.145-7.928,18.525-17.844C128.266,367.636,122.063,367.793,115.672,367.793z"/>
</g>
</svg>
