<?xml version="1.0" encoding="UTF-8" standalone="no"?>
<!-- Created with Inkscape (http://www.inkscape.org/) -->

<svg
   xmlns:dc="http://purl.org/dc/elements/1.1/"
   xmlns:cc="http://creativecommons.org/ns#"
   xmlns:rdf="http://www.w3.org/1999/02/22-rdf-syntax-ns#"
   xmlns:svg="http://www.w3.org/2000/svg"
   xmlns="http://www.w3.org/2000/svg"
   xmlns:xlink="http://www.w3.org/1999/xlink"
   version="1.1"
   width="108.625mm"
   height="213.142mm"
   viewBox="0 0 102.261 200.655"
   id="svg2"
   xml:space="preserve"
   style="fill-rule:evenodd"><metadata
   id="metadata403"><rdf:RDF><cc:Work
       rdf:about=""><dc:format>image/svg+xml</dc:format><dc:type
         rdf:resource="http://purl.org/dc/dcmitype/StillImage" /><dc:title></dc:title></cc:Work></rdf:RDF></metadata>
 <defs
   id="defs4"><linearGradient
   id="linearGradient4050"><stop
     id="stop4052"
     style="stop-color:#838281;stop-opacity:0.40555555"
     offset="0" /><stop
     id="stop4054"
     style="stop-color:#838281;stop-opacity:0"
     offset="1" /></linearGradient><style
   type="text/css"
   id="style149" /><linearGradient
   x1="39.036098"
   y1="41.922699"
   x2="39.036098"
   y2="46.196098"
   id="id0"
   gradientUnits="userSpaceOnUse">
   <stop
   id="stop152"
   style="stop-color:#ffffff;stop-opacity:1"
   offset="0" />
   <stop
   id="stop154"
   style="stop-color:#d894b3;stop-opacity:1"
   offset="0.0901961" />
   <stop
   id="stop156"
   style="stop-color:#b12967;stop-opacity:1"
   offset="1" />
  </linearGradient><linearGradient
   x1="51.115898"
   y1="144.92599"
   x2="51.115898"
   y2="168.67799"
   id="id1"
   gradientUnits="userSpaceOnUse">
   <stop
   id="stop159"
   style="stop-color:#1f1a17;stop-opacity:1"
   offset="0" />
   <stop
   id="stop161"
   style="stop-color:#ffffff;stop-opacity:1"
   offset="1" />
  </linearGradient><linearGradient
   x1="61.7178"
   y1="56.9505"
   x2="61.7178"
   y2="40.946499"
   id="id2"
   gradientUnits="userSpaceOnUse">
   <stop
   id="stop164"
   style="stop-color:#00923f;stop-opacity:1"
   offset="0" />
   <stop
   id="stop166"
   style="stop-color:#7fc99f;stop-opacity:1"
   offset="0.721569" />
   <stop
   id="stop168"
   style="stop-color:#ffffff;stop-opacity:1"
   offset="1" />
  </linearGradient><linearGradient
   x1="40.748901"
   y1="167.201"
   x2="40.748901"
   y2="151.19701"
   id="id3"
   gradientUnits="userSpaceOnUse"
   gradientTransform="translate(1.4317473,0)">
   <stop
   id="stop171"
   style="stop-color:#974578;stop-opacity:1"
   offset="0" />
   <stop
   id="stop173"
   style="stop-color:#cba2bb;stop-opacity:1"
   offset="0.721569" />
   <stop
   id="stop175"
   style="stop-color:#ffffff;stop-opacity:1"
   offset="1" />
  </linearGradient><linearGradient
   x1="84.149498"
   y1="56.9505"
   x2="84.149498"
   y2="40.946499"
   id="id4"
   gradientUnits="userSpaceOnUse">
   <stop
   id="stop178"
   style="stop-color:#fff500;stop-opacity:1"
   offset="0" />
   <stop
   id="stop180"
   style="stop-color:#fffa7f;stop-opacity:1"
   offset="0.721569" />
   <stop
   id="stop182"
   style="stop-color:#ffffff;stop-opacity:1"
   offset="1" />
  </linearGradient><linearGradient
   x1="61.555599"
   y1="87.075798"
   x2="61.555599"
   y2="71.0718"
   id="id5"
   gradientUnits="userSpaceOnUse"
   gradientTransform="translate(0,2.6568815)">
   <stop
   id="stop185"
   style="stop-color:#3300cc;stop-opacity:1"
   offset="0" />
   <stop
   id="stop187"
   style="stop-color:#997fe5;stop-opacity:1"
   offset="0.721569" />
   <stop
   id="stop189"
   style="stop-color:#ffffff;stop-opacity:1"
   offset="1" />
  </linearGradient><linearGradient
   x1="38.961601"
   y1="87.075798"
   x2="38.961601"
   y2="71.0718"
   id="id6"
   gradientUnits="userSpaceOnUse"
   gradientTransform="translate(0,2.6568815)">
   <stop
   id="stop192"
   style="stop-color:#ff6600;stop-opacity:1"
   offset="0" />
   <stop
   id="stop194"
   style="stop-color:#ffb37f;stop-opacity:1"
   offset="0.721569" />
   <stop
   id="stop196"
   style="stop-color:#ffffff;stop-opacity:1"
   offset="1" />
  </linearGradient><linearGradient
   x1="16.325399"
   y1="116.801"
   x2="16.325399"
   y2="100.797"
   id="id7"
   gradientUnits="userSpaceOnUse">
   <stop
   id="stop199"
   style="stop-color:#006633;stop-opacity:1"
   offset="0" />
   <stop
   id="stop201"
   style="stop-color:#7fb399;stop-opacity:1"
   offset="0.72941202" />
   <stop
   id="stop203"
   style="stop-color:#ffffff;stop-opacity:1"
   offset="1" />
  </linearGradient><linearGradient
   x1="62.730499"
   y1="166.983"
   x2="62.730499"
   y2="150.979"
   id="id8"
   xlink:href="#id7"
   gradientUnits="userSpaceOnUse"
   gradientTransform="translate(0.46387546,0)">
  </linearGradient><linearGradient
   x1="85.216003"
   y1="167.02699"
   x2="85.216003"
   y2="151.02299"
   id="id9"
   gradientUnits="userSpaceOnUse"
   gradientTransform="translate(1.5707149e-6,0)">
   <stop
   id="stop207"
   style="stop-color:#00ccff;stop-opacity:1"
   offset="0" />
   <stop
   id="stop209"
   style="stop-color:#7fe5ff;stop-opacity:1"
   offset="0.72941202" />
   <stop
   id="stop211"
   style="stop-color:#ffffff;stop-opacity:1"
   offset="1" />
  </linearGradient><linearGradient
   x1="16.367599"
   y1="87.075798"
   x2="16.367599"
   y2="71.0718"
   id="id10"
   gradientUnits="userSpaceOnUse"
   gradientTransform="translate(0,2.6568815)">
   <stop
   id="stop214"
   style="stop-color:#990000;stop-opacity:1"
   offset="0" />
   <stop
   id="stop216"
   style="stop-color:#cc7f7f;stop-opacity:1"
   offset="0.72941202" />
   <stop
   id="stop218"
   style="stop-color:#ffffff;stop-opacity:1"
   offset="1" />
  </linearGradient><linearGradient
   x1="16.489401"
   y1="167.245"
   x2="16.489401"
   y2="151.241"
   id="id11"
   gradientUnits="userSpaceOnUse"
   gradientTransform="translate(0.12172058,0)">
   <stop
   id="stop221"
   style="stop-color:#ff0000;stop-opacity:1"
   offset="0" />
   <stop
   id="stop223"
   style="stop-color:#ff7f7f;stop-opacity:1"
   offset="0.72941202" />
   <stop
   id="stop225"
   style="stop-color:#ffffff;stop-opacity:1"
   offset="1" />
  </linearGradient><linearGradient
   x1="84.149498"
   y1="87.075798"
   x2="84.149498"
   y2="71.0718"
   id="id12"
   gradientUnits="userSpaceOnUse"
   gradientTransform="translate(0,2.6568815)">
   <stop
   id="stop228"
   style="stop-color:#003333;stop-opacity:1"
   offset="0" />
   <stop
   id="stop230"
   style="stop-color:#7f9999;stop-opacity:1"
   offset="0.74901998" />
   <stop
   id="stop232"
   style="stop-color:#ffffff;stop-opacity:1"
   offset="1" />
  </linearGradient><linearGradient
   x1="16.367599"
   y1="56.9505"
   x2="16.367599"
   y2="40.946499"
   id="id13"
   gradientUnits="userSpaceOnUse">
   <stop
   id="stop235"
   style="stop-color:#000000;stop-opacity:1"
   offset="0" />
   <stop
   id="stop237"
   style="stop-color:#7f7f7f;stop-opacity:1"
   offset="0.85882401" />
   <stop
   id="stop239"
   style="stop-color:#ffffff;stop-opacity:1"
   offset="1" />
  </linearGradient><linearGradient
   x1="45.351398"
   y1="187.304"
   x2="54.852501"
   y2="197.57401"
   id="id14"
   gradientUnits="userSpaceOnUse">
   <stop
   id="stop242"
   style="stop-color:#1f1a17;stop-opacity:1"
   offset="0" />
   <stop
   id="stop244"
   style="stop-color:#4d4948;stop-opacity:1"
   offset="1" />
  </linearGradient><linearGradient
   x1="16.325399"
   y1="116.801"
   x2="16.325399"
   y2="100.797"
   id="linearGradient3157"
   xlink:href="#id7"
   gradientUnits="userSpaceOnUse"
   gradientTransform="translate(-0.04227942,4.2510104)" />
  
  
  
  
  
  
  
  
  
  
  
  


  


  


  


  


  


  


  


  


  


  


  


  


  


  


  
  
  
  
  
  
  
  
  
  
  
  
  
 <linearGradient
   x1="51.115898"
   y1="144.92599"
   x2="51.115898"
   y2="168.67799"
   id="linearGradient3269"
   xlink:href="#id1"
   gradientUnits="userSpaceOnUse" /><linearGradient
   x1="39.036098"
   y1="41.922699"
   x2="39.036098"
   y2="46.196098"
   id="linearGradient3272"
   xlink:href="#id0"
   gradientUnits="userSpaceOnUse" /><linearGradient
   x1="45.351398"
   y1="187.304"
   x2="54.852501"
   y2="197.57401"
   id="linearGradient3277"
   xlink:href="#id14"
   gradientUnits="userSpaceOnUse" /><linearGradient
   x1="45.930389"
   y1="85.610291"
   x2="97.301201"
   y2="85.610291"
   id="linearGradient4056"
   xlink:href="#linearGradient4050"
   gradientUnits="userSpaceOnUse" />
   
   
  
   
   
  
   
   
   
   
   
   
   
   
   
   
   
   
   
  </defs>
 <rect
   width="102.073"
   height="200.467"
   rx="7.2755399"
   ry="7.2755399"
   x="0.094139703"
   y="0.094144702"
   id="rect248"
   style="fill:#dededd;stroke:#1f1a17;stroke-width:0.188283" /><rect
   width="99.867897"
   height="197.987"
   rx="7.2755399"
   ry="7.2755399"
   x="1.36222"
   y="1.43103"
   id="rect250"
   style="fill:#1f1a17;stroke:#1f1a17;stroke-width:0.188283" /><circle
   cx="50.159801"
   cy="186.64301"
   r="9.6861696"
   id="circle252"
   style="fill:#1f1a17;stroke:#4d4948;stroke-width:0.188283" /><path
   d="m 59.5232,188.9 c -5.79723,2.29517 -12.0781,2.52704 -18.8425,0.69561 1.16707,3.77103 4.98319,6.38204 9.33018,6.38204 4.64372,0 8.63617,-2.96998 9.51234,-7.07765 z"
   id="path254"
   style="fill:url(#linearGradient3277);stroke:#1f1a17;stroke-width:0.188283" /><rect
   width="6.8078599"
   height="6.8078599"
   rx="0.41055101"
   ry="0.41055101"
   x="46.756001"
   y="183.239"
   id="rect256"
   style="fill:none;stroke:#c2c1c1;stroke-width:0.188283" /><rect
   width="15.823325"
   height="15.823325"
   rx="2.5357513"
   ry="2.6035421"
   x="30.793493"
   y="42.214684"
   id="rect258"
   style="fill:#ffffff;stroke:#1f1a17;stroke-width:0.18066542" /><path
   d="m 33.23288,42.595115 10.985227,0 c 1.147276,0 2.086026,0.986226 2.086026,2.1918 l 0,2.08156 -15.1572,0 0,-2.08156 c 0,-1.20558 0.938748,-2.1918 2.085928,-2.1918 z"
   id="path260"
   style="fill:url(#linearGradient3272);stroke:#ffffff;stroke-width:0.18706453" /><rect
   width="94.250999"
   height="23.7519"
   x="3.9904101"
   y="144.92599"
   id="rect262"
   style="fill:url(#linearGradient3269);stroke:#1f1a17;stroke-width:0.188283" /><g
   id="_147005968">
   <rect
   width="20.121"
   height="2.8741901"
   rx="0.73308003"
   ry="0.73308003"
   x="41.233398"
   y="14.0545"
   id="_147006064"
   style="fill:#1f1a17;stroke:#383431;stroke-width:0.188283" />
   <path
   d="m 41.8631,16.2395 18.8664,0 0.686762,0 -0.537548,0.43258 c -0.195814,0.15731 -0.431921,0.28506 -0.69354,0.371294 -0.249287,0.08228 -0.522956,0.128127 -0.807546,0.128127 l -16.1627,0 c -0.28459,0 -0.558259,-0.04585 -0.807546,-0.128127 -0.261619,-0.08623 -0.497726,-0.213984 -0.69354,-0.371294 l -0.53783,-0.43258 0.687045,0 z"
   id="_147005992"
   style="fill:#72706f;fill-rule:nonzero;stroke:#383431;stroke-width:0.188283" />
  </g><g
   id="_146909992">
   <g
   id="g268">
    <circle
   cx="34.6157"
   cy="34.6917"
   r="0.48557699"
   id="_147005896"
   style="fill:#ffffff;stroke:#ffffff;stroke-width:0.0717358" />
    <path
   d="m 32.6461,33.2041 c 1.17705,-0.607213 2.43007,-0.607213 3.75879,0"
   id="_147005824"
   style="fill:none;stroke:#ffffff;stroke-width:0.188283" />
    <path
   d="m 32.344,32.4045 c 1.40817,-0.72649 2.90718,-0.72649 4.49676,0"
   id="_147005752"
   style="fill:none;stroke:#ffffff;stroke-width:0.188283" />
    <path
   d="m 33.2689,33.8253 c 0.780433,-0.402549 1.61123,-0.402549 2.49221,0"
   id="_147005680"
   style="fill:none;stroke:#ffffff;stroke-width:0.188283" />
   </g>
   <rect
   width="0.971277"
   height="2.61727"
   x="11.8887"
   y="32.5602"
   id="_147005584"
   style="fill:#ffffff" />
   <rect
   width="0.981475"
   height="2.22946"
   x="10.7231"
   y="32.948002"
   id="_147005512"
   style="fill:#ffffff" />
   <rect
   width="0.971277"
   height="1.94462"
   x="9.5676498"
   y="33.2328"
   id="_146910568"
   style="fill:#ffffff" />
   <rect
   width="0.981475"
   height="1.58425"
   x="8.4020395"
   y="33.593201"
   id="_146910496"
   style="fill:#ffffff" />
   <rect
   width="0.971277"
   height="0.695234"
   x="7.24684"
   y="34.482201"
   id="_146910424"
   style="fill:#ffffff" />
   <text
   x="14.5185"
   y="35.129501"
   id="_146910304"
   style="font-size:4.13083982px;font-weight:normal;fill:#ffffff;stroke:#ffffff;stroke-width:0.0717358;font-family:Arial">t-online</text>




   <text
   x="46.295898"
   y="35.129501"
   id="_146910184"
   style="font-size:4.13083982px;font-weight:normal;fill:#ffffff;stroke:#ffffff;stroke-width:0.0717358;font-family:Arial">11:45</text>




   <g
   id="g281">
    <rect
   width="5.1189499"
   height="2.6568501"
   x="90.914597"
   y="32.520599"
   id="_146910112"
   style="fill:#ffffff" />
    <rect
   width="0.71441799"
   height="1.63423"
   x="96.147202"
   y="33.0191"
   id="_146910040"
   style="fill:#ffffff" />
   </g>
  </g><text
   x="32.300861"
   y="56.038799"
   id="text285"
   style="font-size:11.89929962px;font-weight:bold;fill:#1f1a17;font-family:Arial">20</text>

<text
   x="32.678406"
   y="45.747139"
   id="text287"
   style="font-size:3.58397007px;font-weight:normal;fill:#ffffff;font-family:Arial">Montag</text>

<text
   x="81.10112"
   y="90.062546"
   id="text289"
   style="font-size:4.28333998px;font-weight:normal;fill:#ffffff;font-family:Arial">Uhr</text>

<text
   x="56.458923"
   y="90.062546"
   id="text291"
   style="font-size:4.28333998px;font-weight:normal;fill:#ffffff;font-family:Arial">Börse</text>

<text
   x="32.736923"
   y="90.065239"
   id="text293"
   style="font-size:4.28333998px;font-weight:normal;fill:#ffffff;font-family:Arial">Wetter</text>

<text
   x="10.525548"
   y="90.065239"
   id="text295"
   style="font-size:4.28333998px;font-weight:normal;fill:#ffffff;font-family:Arial">Musik</text>

<text
   x="9.0394239"
   y="117.54996"
   id="text297"
   style="font-size:4.28333998px;font-weight:normal;fill:#ffffff;font-family:Arial">Kamera</text>

<text
   x="9.302454"
   y="172.99699"
   id="text299"
   style="font-size:4.28333998px;font-weight:normal;fill:#ffffff;font-family:Arial">Telefon</text>

<text
   x="33.168423"
   y="173.10899"
   id="text301"
   style="font-size:4.28333998px;font-weight:normal;fill:#ffffff;font-family:Arial">E-Mail</text>

<text
   x="53.977249"
   y="173.27"
   id="text303"
   style="font-size:4.28333998px;font-weight:normal;fill:#ffffff;font-family:Arial">Kontakte</text>

<text
   x="79.509521"
   y="173.132"
   id="text305"
   style="font-size:4.28333998px;font-weight:normal;fill:#ffffff;font-family:Arial">Safari</text>

<text
   x="29.779472"
   y="62.899223"
   id="text307"
   style="font-size:4.28333998px;font-weight:normal;fill:#ffffff;font-family:Arial">Kalender</text>

<text
   x="55.11055"
   y="62.855022"
   id="text309"
   style="font-size:4.28333998px;font-weight:normal;fill:#ffffff;font-family:Arial">iTunes</text>

<text
   x="77.502541"
   y="62.855022"
   id="text311"
   style="font-size:4.28333998px;font-weight:normal;fill:#ffffff;font-family:Arial">iBooks</text>

<text
   x="4.7739272"
   y="62.845024"
   id="text313"
   style="font-size:4.28333998px;font-weight:normal;fill:#ffffff;font-family:Arial">Nachrichten</text>

<g
   id="_111408184">
   <g
   id="g318">
    <path
   d="m 20.3911,56.9505 -8.04693,0 c -2.18823,0 -3.97851,-1.79029 -3.97851,-3.97851 l 0,-8.04703 c 0,-2.18813 1.79029,-3.97851 3.97851,-3.97851 l 8.04693,0 c 2.18813,0 3.97842,1.79038 3.97842,3.97851 l 0,8.04703 c 0,2.18823 -1.79029,3.97851 -3.97842,3.97851 z"
   id="_111408376"
   style="fill:url(#id13)" />
    <path
   d="m 10.7335,40.9465 11.2682,0 c 1.30245,0 2.36794,1.4382 2.36794,3.1961 l 0,9.4e-5 c 0,1.7579 -1.06549,3.1961 -2.36794,3.1961 l -11.2682,0 c -1.30245,0 -2.36794,-1.4382 -2.36794,-3.1961 l 0,-9.4e-5 c 0,-1.7579 1.06549,-3.1961 2.36794,-3.1961 z"
   id="_111408304"
   style="fill:#ffffff;fill-opacity:0.49019602" />
   </g>
   <path
   d="m 14.8951,52.8909 c 0.625759,0.197321 1.2245,0.284119 1.87106,0.284119 2.7896,0 5.05267,-1.78944 5.05267,-3.99527 0,-2.20583 -2.26307,-3.99527 -5.05267,-3.99527 -2.7897,0 -5.05267,1.78944 -5.05267,3.99527 0,1.12188 0.585748,2.13729 1.52801,2.86275 -0.272069,0.58829 -0.544044,1.17705 -0.816113,1.76534 2.46971,-0.916938 1.64625,-0.611449 2.46971,-0.916938 z m -0.355384,0.13048 m 0.08228,-0.03163 m -5.65e-4,-0.0018 m -0.01638,0.004 m 0.0034,-0.0036 m -0.0062,-4.71e-4 m -0.0045,-0.0013"
   id="_111408208"
   style="fill:#ffffff;fill-rule:nonzero" />
  </g><g
   id="g324">
    <path
   d="m 88.173,56.9505 -8.04693,0 c -2.18823,0 -3.97851,-1.79029 -3.97851,-3.97851 l 0,-8.04703 c 0,-2.18813 1.79029,-3.97851 3.97851,-3.97851 l 8.04693,0 c 2.18813,0 3.97842,1.79038 3.97842,3.97851 l 0,8.04703 c 0,2.18823 -1.79029,3.97851 -3.97842,3.97851 z"
   id="_111408112"
   style="fill:url(#id4)" />
    <path
   d="m 78.5154,40.9465 11.2682,0 c 1.30245,0 2.36794,1.4382 2.36794,3.1961 l 0,9.4e-5 c 0,1.7579 -1.06549,3.1961 -2.36794,3.1961 l -11.2682,0 c -1.30245,0 -2.36794,-1.4382 -2.36794,-3.1961 l 0,-9.4e-5 c 0,-1.7579 1.06549,-3.1961 2.36794,-3.1961 z"
   id="_111408040"
   style="fill:#ffffff;fill-opacity:0.49019602" />
   </g><path
   d="m 90.1323,47.572072 c 0,0.298993 -0.05978,0.617098 -0.174538,0.951865 -0.126809,0.361127 -0.272634,0.595539 -0.43531,0.707944 l 0.392288,0.112405 0,0.447266 -0.322905,0.105156 c -0.03587,0.136411 -0.07654,0.363574 -0.11956,0.681679 -0.0048,0.334861 0.03587,0.660026 0.11956,0.973423 l 0.322905,0.145825 0,0.428156 -6.33309,3.20947 -4.09205,-3.51082 c -0.463929,-0.397089 -0.684032,-1.04036 -0.66012,-1.93489 0.0048,-0.279789 0.06703,-0.48304 0.181787,-0.607401 0.06223,-0.07183 0.203252,-0.160323 0.428156,-0.267927 0.162582,-0.07889 0.664827,-0.196097 1.50664,-0.349171 l -1.09298,-0.511753 0,-0.351619 0.421001,-0.109957 c 0.08849,-0.337215 0.131516,-0.679231 0.131516,-1.02369 0,-0.07889 -0.0072,-0.191296 -0.01911,-0.337215 l -2.05445,-0.440017 0,-0.351524 0.267927,-0.03351 c 0.098,-0.258324 0.145825,-0.564472 0.145825,-0.918445 0,-0.361127 -0.04782,-0.671982 -0.145825,-0.93266 l -0.267927,0 0,-0.258324 3.65919,-0.413752 6.48607,0.420907 c 0.308502,0.02156 0.564472,0.157875 0.767724,0.401796 0.203346,0.246368 0.306148,0.564472 0.306148,0.956666 0,0.533312 -0.260678,0.935108 -0.77968,1.20539 0.420907,-0.0048 0.703143,0.04547 0.849062,0.153074 0.143472,0.107604 0.267833,0.325259 0.370635,0.652871 0.09329,0.294192 0.141118,0.559671 0.141118,0.798791 z m -0.329966,0.02156 c 0.0047,-0.365928 -0.07183,-0.684032 -0.232059,-0.954312 -0.148273,-0.255877 -0.308502,-0.375436 -0.483134,-0.356326 l -3.93653,0.468825 c 0.162582,0.425614 0.243921,0.894438 0.243921,1.40864 0,0.545268 -0.08369,1.10249 -0.25117,1.66696 l 4.16143,-0.980578 c 0.126809,-0.02871 0.239214,-0.16503 0.337215,-0.413752 0.09809,-0.246368 0.150721,-0.52851 0.160323,-0.83946 z m -6.71813,-3.00631 c 0.0072,-0.411304 -0.102803,-0.73421 -0.334767,-0.970975 -0.229611,-0.236766 -0.511847,-0.337215 -0.844261,-0.3037 l -3.19526,0.294192 c 0.102803,0.294098 0.155428,0.619357 0.155428,0.980484 0,0.353972 -0.05262,0.698436 -0.155428,1.0284 l 2.96565,0.478333 c 0.05498,0.0096 0.112405,0.01196 0.167384,0.01196 0.337215,0 0.624252,-0.141118 0.865725,-0.42326 0.239214,-0.282236 0.365928,-0.648164 0.37553,-1.09543 z m 2.19312,3.57314 c 0,-0.514201 -0.08614,-0.983026 -0.253523,-1.40864 l -1.20539,-0.22481 c -0.803592,0.112311 -1.36317,0.169737 -1.68127,0.169737 -0.07889,0 -0.141118,-0.0048 -0.181787,-0.01431 l -1.45166,-0.315751 c 0.01431,0.153074 0.02146,0.27028 0.02146,0.349265 0,0.346723 -0.05733,0.729408 -0.174538,1.15032 l 4.67318,1.96116 c 0.167384,-0.564472 0.253523,-1.1217 0.253523,-1.66696 z m 4.26668,3.61607 c -0.117206,-0.380238 -0.174632,-0.762829 -0.169831,-1.15032 0,-0.172185 0.03832,-0.404149 0.112405,-0.69354 l -5.78057,1.97547 c -0.09329,0.308502 -0.13867,0.671982 -0.13867,1.09298 0,0.504598 0.05018,1.00204 0.153074,1.49233 l 5.82359,-2.71692 z m -5.97667,2.71692 c -0.0981,-0.490289 -0.148273,-0.987733 -0.148273,-1.49233 0,-0.421001 0.05018,-0.784481 0.148273,-1.09298 l -3.64488,-2.39647 c -0.107604,-0.06929 -0.212854,-0.105158 -0.315656,-0.105158 -0.275081,0 -0.406597,0.222362 -0.399442,0.667275 0.0144,0.624158 0.148273,1.03791 0.399442,1.23881 l 3.96053,3.18085 z"
   id="_111407944"
   style="fill:#fff500;stroke:#1f1a17;stroke-width:0.0717358" /><g
   id="g330">
    <path
   d="m 65.7413,56.9505 -8.04693,0 c -2.18823,0 -3.97851,-1.79029 -3.97851,-3.97851 l 0,-8.04703 c 0,-2.18813 1.79029,-3.97851 3.97851,-3.97851 l 8.04693,0 c 2.18813,0 3.97842,1.79038 3.97842,3.97851 l 0,8.04703 c 0,2.18823 -1.79029,3.97851 -3.97842,3.97851 z"
   id="_111407848"
   style="fill:url(#id2)" />
    <path
   d="m 56.0837,40.9465 11.2682,0 c 1.30245,0 2.36794,1.4382 2.36794,3.1961 l 0,9.4e-5 c 0,1.7579 -1.06549,3.1961 -2.36794,3.1961 l -11.2682,0 c -1.30245,0 -2.36794,-1.4382 -2.36794,-3.1961 l 0,-9.4e-5 c 0,-1.7579 1.06549,-3.1961 2.36794,-3.1961 z"
   id="_111407776"
   style="fill:#ffffff;fill-opacity:0.49019602" />
   </g><rect
   width="7.5668001"
   height="1.73286"
   x="58.107399"
   y="47.799"
   id="_111407680"
   style="fill:#ffffff;stroke:#ffffff;stroke-width:0.188283" /><rect
   width="0.78795844"
   height="4.4287248"
   x="75.491074"
   y="15.049606"
   transform="matrix(0.89422637,0.44761501,-0.45377324,0.89111719,0,0)"
   id="_111407536"
   style="fill:#ffffff" /><rect
   width="0.78793192"
   height="0.76351553"
   x="75.405235"
   y="13.777369"
   transform="matrix(0.89120397,0.45360278,-0.44861581,0.89372471,0,0)"
   id="_111407464"
   style="fill:#ffffff" /><path
   d="m 61.0208,46.517 0.701919,0.357832 0.152792,-0.308125 c 0.02523,-0.05084 -0.112123,-0.172938 -0.305113,-0.27141 l 0,0 c -0.193084,-0.09838 -0.371671,-0.137258 -0.396901,-0.08642 L 61.020799,46.517 z"
   id="_111407392"
   style="fill:#ffffff" /><path
   d="m 58.5919,52.1624 -9.4e-5,0 0.08416,-1.01315 0.687327,0.351054 -0.771395,0.662097 z m 0,0 m 0.04199,-0.506575 m 0.385792,-0.331096 m -0.04208,0.506575"
   id="_111407320"
   style="fill:#ffffff;fill-rule:nonzero" /><circle
   cx="61.876801"
   cy="48.789101"
   r="5.4295998"
   id="_111407032"
   style="fill:none;stroke:#ffffff;stroke-width:0.188283" /><circle
   cx="61.876801"
   cy="48.789101"
   r="6.3921099"
   id="_111406960"
   style="fill:none;stroke:#1f1a17;stroke-width:0.0717358" /><path
   d="m 68.269,48.7891 c 0,-3.52965 -2.86247,-6.39211 -6.39211,-6.39211 -3.52974,0 -6.39221,2.86247 -6.39221,6.39211 0,3.52974 2.86247,6.39211 6.39221,6.39211 3.52965,0 6.39211,-2.86237 6.39211,-6.39211 z m -6.39211,-5.42961 c 2.99812,0 5.42961,2.43149 5.42961,5.42961 0,2.99822 -2.43149,5.42961 -5.42961,5.42961 -2.99822,0 -5.42961,-2.43139 -5.42961,-5.42961 0,-2.99812 2.43139,-5.42961 5.42961,-5.42961 z"
   id="_111406888"
   style="fill:#ffffff;stroke:#ffffff;stroke-width:0.188283" /><g
   transform="translate(0,-2.6568815)"
   id="g347">
    <path
   d="m 20.3911,87.0758 -8.04693,0 c -2.18823,0 -3.97851,-1.79029 -3.97851,-3.97851 l 0,-8.04703 c 0,-2.18813 1.79029,-3.97851 3.97851,-3.97851 l 8.04693,0 c 2.18813,0 3.97842,1.79038 3.97842,3.97851 l 0,8.04703 c 0,2.18823 -1.79029,3.97851 -3.97842,3.97851 z"
   id="_111368040"
   style="fill:url(#id10)" />
    <path
   d="m 10.7335,71.0718 11.2682,0 c 1.30245,0 2.36794,1.4382 2.36794,3.1961 l 0,9.4e-5 c 0,1.7579 -1.06549,3.1961 -2.36794,3.1961 l -11.2682,0 c -1.30245,0 -2.36794,-1.4382 -2.36794,-3.1961 l 0,-9.4e-5 c 0,-1.7579 1.06549,-3.1961 2.36794,-3.1961 z"
   id="_111367968"
   style="fill:#ffffff;fill-opacity:0.49019602" />
   </g><path
   d="m 20.9406,77.81152 c 0,0.52305 -0.314338,0.966739 -0.937273,1.32805 -0.546491,0.308502 -1.10183,0.464212 -1.67176,0.464212 -0.452538,0 -0.852075,-0.08228 -1.19588,-0.240908 -0.446607,-0.208618 -0.672829,-0.50827 -0.672829,-0.904888 0,-0.493678 0.337874,-0.896133 1.00778,-1.20463 0.540655,-0.25277 1.08715,-0.379014 1.64541,-0.379014 0.396618,0 0.74626,0.06166 1.04883,0.182164 l 0,-3.85782 -5.14756,2.28001 0,5.32973 c 0,0.517119 -0.305583,0.960808 -0.919668,1.33399 -0.540561,0.326106 -1.08705,0.490571 -1.64531,0.490571 -0.446607,0 -0.843225,-0.07927 -1.18703,-0.240908 -0.446607,-0.199768 -0.672829,-0.502339 -0.672829,-0.904888 0,-0.487747 0.334955,-0.887378 0.99903,-1.20463 0.540561,-0.252676 1.08705,-0.379014 1.64531,-0.379014 0.379014,0 0.716888,0.05874 1.01663,0.173315 l 0,-6.86932 6.68715,-2.94399 0,7.54798 z"
   id="_111367872"
   style="fill:#ffffff" /><g
   transform="translate(0,-2.6568815)"
   id="_111367584">
   <g
   id="g353">
    <path
   d="m 42.9851,87.0758 -8.04693,0 c -2.18823,0 -3.97851,-1.79029 -3.97851,-3.97851 l 0,-8.04703 c 0,-2.18813 1.79029,-3.97851 3.97851,-3.97851 l 8.04693,0 c 2.18813,0 3.97842,1.79038 3.97842,3.97851 l 0,8.04703 c 0,2.18823 -1.79029,3.97851 -3.97842,3.97851 z"
   id="_111367776"
   style="fill:url(#id6)" />
    <path
   d="m 33.3275,71.0718 11.2682,0 c 1.30245,0 2.36794,1.4382 2.36794,3.1961 l 0,9.4e-5 c 0,1.7579 -1.06549,3.1961 -2.36794,3.1961 l -11.2682,0 c -1.30245,0 -2.36794,-1.4382 -2.36794,-3.1961 l 0,-9.4e-5 c 0,-1.7579 1.06549,-3.1961 2.36794,-3.1961 z"
   id="_111367704"
   style="fill:#ffffff;fill-opacity:0.49019602" />
   </g>
   <path
   d="m 46.7088,80.041 -14.9005,0 c 0.257195,-0.700507 0.697212,-1.09647 1.31647,-1.18788 0.0068,-0.152321 0.02372,-0.331661 0.05074,-0.534724 l -0.365457,0.108357 0.04735,-0.626135 -0.632819,-0.06769 0.267362,-0.554964 -0.575299,-0.287696 0.446701,-0.436534 -0.436535,-0.467036 0.585466,-0.247027 -0.220009,-0.595633 0.615874,-0.03041 0,-0.622746 0.595633,0.206452 0.236954,-0.585466 0.477109,0.399348 0.416294,-0.456869 0.29777,0.534724 0.565131,-0.267362 0.08802,0.605801 0.626135,-0.05084 -0.148932,0.626135 0.216525,0.05752 c 0.507611,-0.639597 1.19127,-0.961091 2.04409,-0.961091 0.818937,0 1.5635,0.311326 2.23012,0.930589 0.402737,-0.23686 0.84605,-0.35529 1.32664,-0.35529 1.20473,0 1.88829,0.670005 2.05417,2.01359 0.11843,-0.04067 0.260584,-0.06091 0.426367,-0.06091 0.463647,0 0.829104,0.13867 1.09995,0.4162 0.270657,0.277529 0.406032,0.646376 0.406032,1.11002 0,0.125208 -0.01017,0.270751 -0.03041,0.436534 0.531241,0.131986 0.822326,0.450091 0.873068,0.951017 z m -2.04061,1.24191 c -0.101579,0.314715 -0.148932,0.683656 -0.148932,1.09986 0,0.382403 -0.165783,0.575299 -0.497538,0.575299 -0.341734,0 -0.514295,-0.165783 -0.514295,-0.497444 0,-0.487276 0.385792,-0.883236 1.16076,-1.17771 z m -3.80718,0 c -0.08124,0.257195 -0.125302,0.517778 -0.128691,0.781751 -0.0067,0.31142 -0.02702,0.507611 -0.06091,0.595633 -0.06769,0.196285 -0.216525,0.29777 -0.456869,0.29777 -0.328177,0 -0.494055,-0.165783 -0.494055,-0.497444 0,-0.494055 0.379014,-0.890014 1.14052,-1.17771 z m 1.81382,2.0102 c -0.101485,0.318104 -0.148838,0.683656 -0.148838,1.09986 0,0.385792 -0.165877,0.575299 -0.497444,0.575299 -0.33505,0 -0.504316,-0.159005 -0.504316,-0.483887 0,-0.497444 0.382403,-0.893403 1.1506,-1.19127 z m -3.80718,0 c -0.08115,0.257195 -0.121819,0.521167 -0.128597,0.78514 -0.0068,0.308031 -0.02363,0.507611 -0.05074,0.592244 -0.07108,0.199674 -0.223304,0.29777 -0.456869,0.29777 -0.33505,0 -0.504222,-0.159005 -0.504222,-0.483887 0,-0.504222 0.379014,-0.900181 1.14043,-1.19127 z M 36.0114,75.94612 c -0.2571,-0.798697 -0.812159,-1.19804 -1.66499,-1.19804 -0.483887,0 -0.893403,0.169266 -1.23523,0.511094 -0.341734,0.338345 -0.511,0.751249 -0.511,1.23175 0,0.561837 0.223398,1.01871 0.663321,1.37061 0.135375,-0.443312 0.389181,-0.795213 0.764806,-1.05241 0.375625,-0.257289 0.798697,-0.385792 1.26912,-0.385792 0.17934,0 0.341734,0.02024 0.487276,0.06091 0.03719,-0.152321 0.115041,-0.331661 0.226693,-0.538113 z"
   id="_111367608"
   style="fill:#667ab3" />
  </g><g
   transform="translate(0,-2.6568815)"
   id="_111367320">
   <g
   id="g359">
    <path
   d="m 65.5791,87.0758 -8.04693,0 c -2.18823,0 -3.97851,-1.79029 -3.97851,-3.97851 l 0,-8.04703 c 0,-2.18813 1.79029,-3.97851 3.97851,-3.97851 l 8.04693,0 c 2.18813,0 3.97842,1.79038 3.97842,3.97851 l 0,8.04703 c 0,2.18823 -1.79029,3.97851 -3.97842,3.97851 z"
   id="_111367512"
   style="fill:url(#id5)" />
    <path
   d="m 55.9215,71.0718 11.2682,0 c 1.30245,0 2.36794,1.4382 2.36794,3.1961 l 0,9.4e-5 c 0,1.7579 -1.06549,3.1961 -2.36794,3.1961 l -11.2682,0 c -1.30245,0 -2.36794,-1.4382 -2.36794,-3.1961 l 0,-9.4e-5 c 0,-1.7579 1.06549,-3.1961 2.36794,-3.1961 z"
   id="_111367440"
   style="fill:#ffffff;fill-opacity:0.49019602" />
   </g>
   <path
   d="m 67.9011,83.9926 -12.5567,0 0,-11.0294 12.5567,0 0,11.0294 z m -0.380991,-7.46043 0,-3.18801 -3.70259,0 0,2.99587 0.915055,-0.866196 1.23099,1.05834 1.55654,0 z m 0,1.33511 0,-1.1072 -1.28955,0 1.28955,1.1072 z m -2.47169,-1.33511 -0.296263,-0.257289 -0.276776,0.257289 0.573039,0 z m 2.47169,3.67321 0,-1.55654 -2.20461,-1.88876 -1.07792,0 -0.420059,0.390781 0,3.05452 3.70259,0 z m -3.9305,-3.67321 0,-3.18801 -3.94999,0 0,3.18801 3.94999,0 z m 3.9305,7.07944 0,-3.17831 -3.70259,0 0,3.17831 3.70259,0 z m -4.14223,-6.85152 -3.73827,0 0,1.65105 1.05834,0.879188 2.67993,-2.53024 z m 0.211724,3.4453 0,-2.83309 -2.87216,2.71909 -1.07783,-0.898769 0,1.01277 3.94999,0 z m -4.1812,-3.67321 0,-3.18801 -3.683,0 0,3.18801 3.683,0 z m 4.1812,7.07944 0,-3.17831 -3.94999,0 0,3.17831 3.94999,0 z m -4.1812,-5.38932 0,-1.46221 -3.683,0 0,3.13924 2.84609,-2.37397 0.836918,0.69693 z m 0,1.98309 0,-1.20162 -0.836918,-0.696835 -2.27295,1.89846 3.10987,0 z m 0,3.40623 0,-3.17831 -3.38674,0 -0.296263,0.247498 0,2.93081 3.683,0 z"
   id="_111367344"
   style="fill:#fff500" />
  </g><g
   transform="translate(0,-2.6568815)"
   id="_111367056">
   <g
   id="g365">
    <path
   d="m 88.173,87.0758 -8.04693,0 c -2.18823,0 -3.97851,-1.79029 -3.97851,-3.97851 l 0,-8.04703 c 0,-2.18813 1.79029,-3.97851 3.97851,-3.97851 l 8.04693,0 c 2.18813,0 3.97842,1.79038 3.97842,3.97851 l 0,8.04703 c 0,2.18823 -1.79029,3.97851 -3.97842,3.97851 z"
   id="_111367248"
   style="fill:url(#id12)" />
    <path
   d="m 78.5154,71.0718 11.2682,0 c 1.30245,0 2.36794,1.4382 2.36794,3.1961 l 0,9.4e-5 c 0,1.7579 -1.06549,3.1961 -2.36794,3.1961 l -11.2682,0 c -1.30245,0 -2.36794,-1.4382 -2.36794,-3.1961 l 0,-9.4e-5 c 0,-1.7579 1.06549,-3.1961 2.36794,-3.1961 z"
   id="_111367176"
   style="fill:#ffffff;fill-opacity:0.49019602" />
   </g>
   <path
   d="m 84.1794,72.8672 c 1.76788,0 3.27594,0.622652 4.52425,1.87106 1.24841,1.24841 1.87116,2.75646 1.87116,4.52425 0,1.7708 -0.622746,3.27885 -1.87116,4.52727 -1.24832,1.24841 -2.75637,1.87106 -4.52425,1.87106 -1.77071,0 -3.27885,-0.622652 -4.52717,-1.87106 -1.24841,-1.24841 -1.87116,-2.75646 -1.87116,-4.52727 0,-1.76779 0.622746,-3.27584 1.87116,-4.52425 1.24832,-1.24841 2.75646,-1.87106 4.52717,-1.87106 z m 0,0.424955 c -1.64974,0 -3.05743,0.584336 -4.22328,1.75009 -1.16566,1.16575 -1.75009,2.57355 -1.75009,4.22027 0,1.64974 0.58443,3.05753 1.75009,4.22328 1.16585,1.16575 2.57355,1.75009 4.22328,1.75009 1.64682,0 3.05461,-0.584336 4.22036,-1.75009 1.16575,-1.16575 1.75009,-2.57355 1.75009,-4.22328 0,-1.64672 -0.584336,-3.05452 -1.75009,-4.22027 -1.16575,-1.16575 -2.57355,-1.75009 -4.22036,-1.75009 z m 0,11.5128 -0.746636,-1.48744 0.424955,0 0,-3.73337 -0.640445,0 0,-0.640351 0.640445,0 0,-0.640445 0.640445,0 0,0.640445 2.01275,0 0,-0.425049 1.49629,0.743718 -1.49629,0.743718 0,-0.422036 -2.01275,0 0,3.73337 0.422036,0 -0.7408,1.48744 z m -4.86956,-5.83461 0,0.587255 -0.587255,0 0,-0.587255 0.587255,0 z m 9.72736,0 0.587255,0 0,0.587255 -0.587255,0 0,-0.587255 z m -5.15293,-4.56567 0,-0.587255 0.587349,0 0,0.587255 -0.587349,0 z m -4.06381,7.03877 0.292121,0.507611 -0.507611,0.295134 -0.295134,-0.510529 0.510624,-0.292215 z m 8.41107,-4.86071 0.510529,-0.292121 0.295134,0.507611 -0.510529,0.295134 -0.295134,-0.510624 z m -1.87699,7.03585 0.510529,-0.292215 0.295134,0.510624 -0.510624,0.292121 -0.295039,-0.510529 z m -4.8578,-8.41992 -0.292215,-0.498856 0.507611,-0.303983 0.295134,0.510624 -0.510529,0.292215 z m -0.0088,8.12771 0.510529,0.292215 -0.292121,0.510529 -0.510624,-0.292121 0.292215,-0.510624 z m 4.86665,-8.41107 0.295039,-0.510624 0.501774,0.295134 -0.295134,0.507705 -0.50168,-0.292215 z m 1.89469,7.03576 0.286284,-0.507611 0.510529,0.292215 -0.295134,0.510529 -0.50168,-0.295134 z m -8.41992,-4.86655 -0.510624,-0.295134 0.295134,-0.498762 0.507611,0.292121 -0.292121,0.501774 z"
   id="_111367080"
   style="fill:#ffffff" />
  </g><g
   transform="translate(-1.4317473,0)"
   id="_111366480">
   <g
   id="g371">
    <path
   d="m 44.7724,167.201 -8.04693,0 c -2.18823,0 -3.97851,-1.79029 -3.97851,-3.97851 l 0,-8.04703 c 0,-2.18813 1.79029,-3.97851 3.97851,-3.97851 l 8.04693,0 c 2.18813,0 3.97842,1.79038 3.97842,3.97851 l 0,8.04703 c 0,2.18823 -1.79029,3.97851 -3.97842,3.97851 z"
   id="_111366312"
   style="fill:url(#id3)" />
    <path
   d="m 35.1148,151.197 11.2682,0 c 1.30245,0 2.36794,1.4382 2.36794,3.1961 l 0,9e-5 c 0,1.7579 -1.06549,3.1961 -2.36794,3.1961 l -11.2682,0 c -1.30245,0 -2.36794,-1.4382 -2.36794,-3.1961 l 0,-9e-5 c 0,-1.7579 1.06549,-3.1961 2.36794,-3.1961 z"
   id="_111366240"
   style="fill:#ffffff;fill-opacity:0.49019602" />
   </g>
   <g
   id="g375">
    <rect
   width="11.9547"
   height="9.04984"
   x="34.872501"
   y="154.67599"
   id="_111366144"
   style="fill:none;stroke:#ffffff;stroke-width:0.188283" />
    <path
   d="m 39.1433,159.201 -3.97343,-3.97136 0,7.94281 3.97343,-3.97145 z m 3.20448,0.21295 -1.07293,1.06474 c -0.117865,0.12191 -0.258513,0.18188 -0.423825,0.18188 -0.165407,0 -0.308031,-0.06 -0.430038,-0.18188 l -1.06681,-1.06474 -3.97136,3.97145 10.9302,0 -3.96524,-3.97145 z m 0.210877,-0.21295 3.96731,3.97145 0,-7.94281 -3.96731,3.97136 z m -7.17584,-4.18431 5.25526,5.25733 c 0.0579,0.0558 0.128127,0.0847 0.212948,0.0847 0.08473,0 0.155051,-0.0289 0.212948,-0.0847 l 5.25517,-5.25733 -10.9363,0 z m -0.510624,-0.29777 11.9556,0 0,8.96415 -11.9556,0 0,-8.96415 z"
   id="_111072176"
   style="fill:none;stroke:#ffffff;stroke-width:0.188283" />
   </g>
  </g><g
   transform="translate(-0.12172058,0)"
   id="_111366384">
   <path
   d="m 20.5129,167.245 -8.04693,0 c -2.18823,0 -3.97851,-1.79029 -3.97851,-3.97851 l 0,-8.04703 c 0,-2.18813 1.79029,-3.97851 3.97851,-3.97851 l 8.04693,0 c 2.18813,0 3.97842,1.79038 3.97842,3.97851 l 0,8.04703 c 0,2.18823 -1.79029,3.97851 -3.97842,3.97851 z"
   id="_147366912"
   style="fill:url(#id11)" />
   <path
   d="m 10.8553,151.241 11.2682,0 c 1.30245,0 2.36794,1.4382 2.36794,3.1961 l 0,9e-5 c 0,1.7579 -1.06549,3.1961 -2.36794,3.1961 l -11.2682,0 c -1.30245,0 -2.36794,-1.4382 -2.36794,-3.1961 l 0,-9e-5 c 0,-1.7579 1.06549,-3.1961 2.36794,-3.1961 z"
   id="_147367008"
   style="fill:#ffffff;fill-opacity:0.49019602" />
   <path
   d="m 21.7098,163.137 c -0.08925,0.24674 -0.239684,0.60674 -0.448302,1.0735 -0.597987,0.48473 -1.27797,0.81056 -2.04306,0.98415 -1.34566,-0.81027 -2.82669,-2.21251 -4.43887,-4.20154 -0.597045,-0.73656 -1.24474,-1.64051 -1.94035,-2.71401 -0.816583,-1.26451 -1.33615,-2.2256 -1.56115,-2.88092 0.326106,-0.71519 0.78354,-1.31563 1.37955,-1.80281 0.239967,-0.0713 0.623311,-0.14384 1.14711,-0.21115 l 1.58384,2.30553 -0.538489,1.64418 c 0.05874,0.56051 0.207394,1.04817 0.455174,1.46399 0.114758,0.20456 0.428061,0.62265 0.935672,1.24888 0.567862,0.7006 1.08997,1.09825 1.56218,1.1875 0.211254,0.0457 0.868832,0.002 1.97481,-0.12917 l 1.93188,2.03186 z"
   id="_111366408"
   style="fill:#ffffff" />
  </g><g
   transform="translate(-0.46387546,0)"
   id="_147368376">
   <path
   d="m 66.754,166.983 -8.04693,0 c -2.18823,0 -3.97851,-1.79029 -3.97851,-3.97851 l 0,-8.04703 c 0,-2.18813 1.79029,-3.97851 3.97851,-3.97851 l 8.04693,0 c 2.18813,0 3.97842,1.79038 3.97842,3.97851 l 0,8.04703 c 0,2.18823 -1.79029,3.97851 -3.97842,3.97851 z"
   id="_147366744"
   style="fill:url(#id8)" />
   <path
   d="m 57.0964,150.979 11.2682,0 c 1.30245,0 2.36794,1.4382 2.36794,3.1961 l 0,9e-5 c 0,1.7579 -1.06549,3.1961 -2.36794,3.1961 l -11.2682,0 c -1.30245,0 -2.36794,-1.4382 -2.36794,-3.1961 l 0,-9e-5 c 0,-1.7579 1.06549,-3.1961 2.36794,-3.1961 z"
   id="_147368448"
   style="fill:#ffffff;fill-opacity:0.49019602" />
   <circle
   cx="62.8368"
   cy="155.284"
   r="3.20941"
   id="_111071888"
   style="fill:none;stroke:#ffffff;stroke-width:0.332131" />
   <path
   d="m 57.6353,164.913 10.2922,0 0,-2.60066 c 0,-1.43048 -1.17027,-2.60075 -2.60066,-2.60075 l -5.0908,0 c -1.43048,0 -2.60075,1.17027 -2.60075,2.60075 l 0,2.60066 z"
   id="_111071816"
   style="fill:none;stroke:#ffffff;stroke-width:0.332131" />
  </g><g
   transform="translate(-1.5707149e-6,0)"
   id="_111366504">
   <path
   d="m 89.2396,167.027 -8.04693,0 c -2.18823,0 -3.97851,-1.79029 -3.97851,-3.97851 l 0,-8.04703 c 0,-2.18813 1.79029,-3.97851 3.97851,-3.97851 l 8.04693,0 c 2.18813,0 3.97842,1.79038 3.97842,3.97851 l 0,8.04703 c 0,2.18823 -1.79029,3.97851 -3.97842,3.97851 z"
   id="_147366408"
   style="fill:url(#id9)" />
   <path
   d="m 79.582,151.023 11.2682,0 c 1.30245,0 2.36794,1.4382 2.36794,3.1961 l 0,9e-5 c 0,1.7579 -1.06549,3.1961 -2.36794,3.1961 l -11.2682,0 c -1.30245,0 -2.36794,-1.4382 -2.36794,-3.1961 l 0,-9e-5 c 0,-1.7579 1.06549,-3.1961 2.36794,-3.1961 z"
   id="_147368352"
   style="fill:#ffffff;fill-opacity:0.49019602" />
   <path
   d="m 92.2807,159.005 -5.59238,1.31619 -1.39744,5.63296 -1.31619,-5.60048 -5.63305,-1.38925 5.60057,-1.31619 1.38925,-5.64115 1.31619,5.60867 5.63305,1.38925 z m -5.94174,-1.32429 -0.966833,-4.29248 0,5.28369 0.966833,-0.99122 z m 4.62555,1.34058 -5.2756,0 0.98312,0.97493 4.29248,-0.97493 z m -6.02299,-0.0731 -0.991216,-0.97493 -4.29248,0.97493 5.28369,0 z m 0.319516,5.63569 0,-5.28633 -0.97766,0.99385 0.97766,4.29248 z"
   id="_111071552"
   style="fill:#ffffff" />
   <path
   d="m 89.2955,155.022 -2.43751,3.93794 2.41435,4.00751 -3.94265,-2.44212 -4.0029,2.41897 2.44222,-3.94265 -2.42367,-4.00751 3.94726,2.44683 4.0029,-2.41897 z m -4.14185,2.63201 -2.99784,-1.89573 3.01178,3.01178 -0.01393,-1.11605 z m 3.40086,-1.87257 -3.00716,3.00716 1.11605,-0.005 1.89111,-3.00255 z m -3.47495,3.39154 -1.12066,0.009 -1.89111,3.00246 3.01178,-3.01178 z m 3.39465,3.03032 -3.01328,-3.01328 0.0092,1.12377 3.00406,1.88951 z"
   id="_111071480"
   style="fill:#ffffff" />
  </g><g
   transform="translate(0.04227942,-4.2510104)"
   id="_111366576">
   <path
   d="m 20.3489,116.801 -8.04693,0 c -2.18823,0 -3.97851,-1.79029 -3.97851,-3.97851 l 0,-8.04703 c 0,-2.18813 1.79029,-3.97851 3.97851,-3.97851 l 8.04693,0 c 2.18813,0 3.97842,1.79038 3.97842,3.97851 l 0,8.04703 c 0,2.18823 -1.79029,3.97851 -3.97842,3.97851 z"
   id="_147365160"
   style="fill:url(#linearGradient3157)" />
   <path
   d="m 10.6913,100.797 11.2682,0 c 1.30245,0 2.36794,1.4382 2.36794,3.1961 l 0,9e-5 c 0,1.7579 -1.06549,3.1961 -2.36794,3.1961 l -11.2682,0 c -1.30245,0 -2.36794,-1.4382 -2.36794,-3.1961 l 0,-9e-5 c 0,-1.7579 1.06549,-3.1961 2.36794,-3.1961 z"
   id="_147366624"
   style="fill:#ffffff;fill-opacity:0.49019602" />
   <g
   id="g396">
    <rect
   width="11.4777"
   height="8.6082802"
   rx="1.173"
   ry="1.173"
   x="10.3736"
   y="104.8"
   id="_111366816"
   style="fill:none;stroke:#ffffff;stroke-width:0.332131" />
    <circle
   cx="18.0263"
   cy="109.544"
   r="2.0562601"
   id="_111366744"
   style="fill:none;stroke:#ffffff;stroke-width:0.332131" />
    <rect
   width="2.6085701"
   height="1.43471"
   x="11.6779"
   y="105.713"
   id="_111366672"
   style="fill:none;stroke:#ffffff;stroke-width:0.332131" />
   </g>
  </g><path
   d="m 97.818802,124.20968 -53.57862,-93.888154 53.57862,0 0,93.888154 z M 71.029492,77.26583 m 0,-46.944416 m 26.78931,46.944416"
   id="path315"
   style="fill:url(#linearGradient4056);fill-opacity:1;fill-rule:nonzero;stroke:none" />
<g
   transform="translate(-8.1449608,-4.019591)"
   id="g4087"><path
     d="m 72.870218,55.228144 0.368752,-0.201369 0.595822,0.933978 c 0.04029,0.06326 0.02457,0.144225 -0.02721,0.170302 l -0.295981,0.149308 c -0.05168,0.02617 -0.124832,-0.0019 -0.157969,-0.06919 l -0.483414,-0.98303 z"
     id="_111407176"
     style="fill:#ffffff" /><path
     d="m 73.232318,55.017544 -0.372141,0.203157 -0.628865,-0.709639 0.744094,-0.406221 0.256912,0.912702 z m -0.186024,0.101579 m -0.50055,-0.253241 m 0.05761,-0.557977 m 0.50055,0.253241"
     id="_111407104"
     style="fill:#ffffff;fill-rule:nonzero" /><rect
     width="0.92973971"
     height="5.1599588"
     rx="0.34865233"
     ry="0.54796028"
     x="42.846081"
     y="78.154564"
     transform="matrix(0.8734094,-0.48698668,0.41879454,0.90808102,0,0)"
     id="rect4085"
     style="fill:#ffffff;fill-opacity:1;stroke:none" /></g></svg>